<?xml version="1.0" encoding="UTF-8"?>
<svg id="Layer_2" data-name="Layer 2" xmlns="http://www.w3.org/2000/svg" viewBox="0 0 33.6 93.43">
  <defs>
    <style>
      .cls-1 {
        fill: #fff;
        fill-rule: evenodd;
      }
    </style>
  </defs>
  <g id="Layer_1-2" data-name="Layer 1">
    <path class="cls-1" d="M4.59,47.49l-3.66,3.86L0,86.32c-.05,1.67.45,3.31,1.43,4.6l5.66-5.98.89-33.62-3.39-3.83Z"/>
    <path class="cls-1" d="M25.81,7.69l5.66-5.98c-1.15-1.11-2.63-1.72-4.16-1.72H8.46c-1.46,0-2.87.55-3.99,1.56l5.42,6.13h15.92Z"/>
    <polygon class="cls-1" points="24.62 50.56 28.28 46.7 24.9 42.87 8.97 42.87 5.32 46.73 8.7 50.56 24.62 50.56"/>
    <path class="cls-1" d="M4.62,45.94l-3.39-3.83L2.17,6.63c.05-1.59.6-3.11,1.57-4.3l5.42,6.13-.89,33.62-3.66,3.86Z"/>
    <path class="cls-1" d="M29.01,45.94l-3.39-3.83.89-33.62,5.66-5.98c.97,1.29,1.48,2.93,1.43,4.6l-.93,34.97-3.66,3.86Z"/>
    <path class="cls-1" d="M32.37,51.33l-3.39-3.83-3.66,3.86-.89,33.62,5.42,6.13c.96-1.19,1.52-2.71,1.57-4.3l.95-35.47Z"/>
    <path class="cls-1" d="M2.13,91.71l5.66-5.98h15.92l5.42,6.13c-1.12,1.01-2.54,1.56-3.99,1.56H6.29c-1.53,0-3.01-.61-4.16-1.72"/>
  </g>
</svg>