<?xml version="1.0" encoding="UTF-8"?>
<svg id="Layer_2" data-name="Layer 2" xmlns="http://www.w3.org/2000/svg" viewBox="0 0 229.61 113.39">
  <defs>
    <style>
      .cls-1 {
        fill-rule: evenodd;
      }

      .cls-1, .cls-2 {
        fill: #fff;
      }

      .cls-3 {
        fill: #f3ba3f;
      }

      .cls-4 {
        fill: #69ba9f;
      }
    </style>
  </defs>
  <g id="Layer_1-2" data-name="Layer 1">
    <path d="M224.56,113.39H5.05c-2.79,0-5.05-2.21-5.05-4.93V4.93C0,2.21,2.26,0,5.05,0h219.51c2.79,0,5.05,2.21,5.05,4.93v103.53c0,2.72-2.26,4.93-5.05,4.93"/>
    <path class="cls-2" d="M30.71,86.71h-.86v-1.52c0-.85-.69-1.54-1.54-1.54h-15.63c-.85,0-1.54.69-1.54,1.54v6.65c0,.85.69,1.54,1.54,1.54h15.63c.85,0,1.54-.69,1.54-1.54v-1.52h.86c.37,0,.67-.3.67-.67v-2.27c0-.37-.3-.67-.67-.67M28.44,91.85c0,.07-.06.13-.13.13h-13.4l1.27-6.91h12.13c.07,0,.13.06.13.13v6.65Z"/>
    <polygon class="cls-2" points="205.96 58.36 205.96 66.85 208.83 62.73 211.52 62.73 208.4 66.94 211.88 74.2 209.12 74.2 206.84 69.07 205.96 70.25 205.96 74.2 203.68 74.2 203.68 58.36 205.96 58.36"/>
    <path class="cls-2" d="M220.51,75.04c-.09.59-.29,1.14-.59,1.65-.3.51-.73.94-1.3,1.3-.57.35-1.33.53-2.28.53-.41,0-.82-.07-1.24-.21-.42-.14-.81-.36-1.15-.65-.35-.3-.64-.68-.87-1.14-.23-.47-.36-1.02-.39-1.67h2.26c.11.59.32,1,.62,1.23.31.23.67.34,1.07.34.64,0,1.11-.27,1.4-.8.29-.53.44-1.21.43-2.02v-1.51h-.03c-.25.61-.6,1.05-1.05,1.34-.45.29-.93.43-1.44.43-.62,0-1.15-.15-1.6-.45-.45-.3-.82-.72-1.11-1.24-.29-.52-.5-1.14-.63-1.84-.13-.7-.2-1.45-.2-2.23,0-.74.08-1.45.23-2.14.15-.69.38-1.29.68-1.82.3-.52.67-.94,1.12-1.25.44-.31.95-.46,1.53-.46.55,0,1.02.14,1.43.42.41.28.76.75,1.03,1.42h.03v-1.53h2.17v10.74c0,.46-.05.98-.14,1.58M217.39,71.23c.25-.18.45-.41.61-.71.16-.3.28-.63.36-1.01.08-.38.12-.77.12-1.19,0-.47-.03-.92-.1-1.34-.06-.42-.17-.79-.32-1.12-.15-.32-.35-.58-.59-.78-.25-.19-.56-.29-.93-.29-.32,0-.6.09-.83.27-.23.18-.42.42-.58.72-.15.3-.27.65-.34,1.04-.07.39-.1.8-.1,1.23s.03.82.09,1.23c.06.41.16.77.31,1.1.14.33.33.59.57.8.24.21.53.31.88.31.32,0,.6-.09.85-.27"/>
    <rect class="cls-2" x="203.73" y="87.62" width="2.28" height="15.84"/>
    <path class="cls-2" d="M211.37,87.62v5.77h.03c.28-.59.66-1.02,1.13-1.3.48-.27.97-.41,1.48-.41.42,0,.83.12,1.23.35.41.24.77.6,1.1,1.09.33.49.59,1.11.79,1.88.2.76.31,1.67.31,2.72s-.1,1.96-.31,2.72-.47,1.39-.79,1.87c-.33.49-.69.85-1.1,1.09-.41.24-.82.35-1.23.35-.61,0-1.15-.13-1.64-.4-.48-.27-.85-.72-1.09-1.35h-.03v1.46h-2.17v-15.84h2.28ZM215.05,96.34c-.08-.44-.19-.84-.35-1.18-.16-.34-.36-.61-.6-.81-.24-.2-.53-.3-.87-.3s-.62.1-.87.3c-.25.2-.45.47-.61.81-.16.34-.28.73-.35,1.18-.08.44-.11.91-.11,1.4s.04.93.11,1.38c.07.44.19.84.35,1.18.16.34.36.61.61.81.24.2.53.3.87.3s.63-.1.87-.3c.24-.2.44-.47.6-.81.16-.34.28-.73.35-1.18.07-.44.11-.9.11-1.38s-.04-.95-.11-1.4"/>
    <path class="cls-2" d="M210.69,25.36v-5.04c0-.14-.17-.22-.27-.12l-2.09,1.82c-.4.35-1,.3-1.35-.09-.29-.33-.25-.83.08-1.12l3.04-2.65c.08-.07.08-.18,0-.25l-3.04-2.64c-.33-.29-.36-.79-.08-1.12.35-.4.95-.44,1.35-.09l2.09,1.82c.11.09.27.02.27-.12v-5.04c0-.97,1.15-1.5,1.88-.86l3.87,3.37c.52.45.52,1.26,0,1.71l-3.41,2.97c-.08.07-.08.18,0,.25l3.41,2.97c.52.45.52,1.26,0,1.71l-3.87,3.37c-.73.64-1.88.12-1.88-.86M212.44,20.33v3.33c0,.14.17.22.27.12l1.91-1.66c.08-.07.08-.18,0-.25l-1.91-1.67c-.11-.09-.27-.02-.27.12M212.44,12.43v3.33c0,.14.17.22.27.12l1.91-1.66c.08-.07.08-.18,0-.25l-1.91-1.66c-.11-.09-.27-.02-.27.12"/>
    <path class="cls-2" d="M216.61,51.07h-9.49c-1.23,0-2.23-1-2.23-2.23v-12.65c0-1.23,1-2.23,2.23-2.23h9.49c1.23,0,2.23,1,2.23,2.23v12.65c0,1.23-1,2.23-2.23,2.23M207.12,35.88c-.17,0-.31.14-.31.31v12.65c0,.17.14.31.31.31h9.49c.17,0,.31-.14.31-.31v-12.65c0-.17-.14-.31-.31-.31h-9.49Z"/>
    <path class="cls-2" d="M214.9,43.47h-6.06c-.53,0-.96-.43-.96-.96s.43-.96.96-.96h6.06c.53,0,.96.43.96.96s-.43.96-.96.96"/>
    <path class="cls-2" d="M214.9,39.94h-6.06c-.53,0-.96-.43-.96-.96s.43-.96.96-.96h6.06c.53,0,.96.43.96.96s-.43.96-.96.96"/>
    <path class="cls-2" d="M214.9,47.01h-6.06c-.53,0-.96-.43-.96-.96s.43-.96.96-.96h6.06c.53,0,.96.43.96.96s-.43.96-.96.96"/>
    <path class="cls-1" d="M48.73,57.53l-3.66,3.86-.93,34.97c-.05,1.67.45,3.31,1.43,4.6l5.66-5.98.89-33.62-3.39-3.83Z"/>
    <path class="cls-2" d="M159.12,100.31c0-1.54-1.25-2.79-2.79-2.79s-2.79,1.25-2.79,2.79,1.25,2.79,2.79,2.79,2.79-1.25,2.79-2.79"/>
    <path class="cls-1" d="M129.8,10.04c-1.46,0-2.87.55-3.99,1.56l5.42,6.13h15.92l5.66-5.98c-1.15-1.11-2.63-1.72-4.16-1.72h-18.85Z"/>
    <polygon class="cls-1" points="145.97 60.6 149.63 56.74 146.24 52.9 130.32 52.9 126.66 56.76 130.05 60.6 145.97 60.6"/>
    <path class="cls-1" d="M125.96,55.97l-3.39-3.83.95-35.47c.05-1.59.6-3.11,1.57-4.3l5.42,6.13-.89,33.62-3.66,3.86Z"/>
    <path class="cls-1" d="M150.35,55.97l-3.39-3.83.89-33.62,5.66-5.98c.97,1.29,1.48,2.93,1.43,4.6l-.93,34.97-3.66,3.86Z"/>
    <path class="cls-1" d="M122.78,100.96l5.66-5.98.89-33.62-3.39-3.83-3.66,3.86-.93,34.97c-.05,1.67.45,3.31,1.43,4.6"/>
    <path class="cls-1" d="M153.72,61.36l-3.39-3.83-3.66,3.86-.89,33.62,5.42,6.13c.96-1.19,1.52-2.71,1.57-4.3l.95-35.47Z"/>
    <path class="cls-1" d="M123.48,101.75c1.15,1.11,2.63,1.72,4.16,1.72h18.85c1.46,0,2.87-.55,3.99-1.56l-5.42-6.13h-15.92l-5.66,5.98Z"/>
    <polygon class="cls-1" points="184.58 60.6 188.24 56.74 184.85 52.9 168.93 52.9 165.27 56.76 168.66 60.6 184.58 60.6"/>
    <path class="cls-1" d="M164.57,55.97l-3.39-3.83.95-35.47c.05-1.59.6-3.11,1.57-4.3l5.42,6.13-.89,33.62-3.66,3.86Z"/>
    <path class="cls-1" d="M168.41,10.04c-1.46,0-2.87.55-3.99,1.56l5.42,6.13h15.92l5.66-5.98c-1.15-1.11-2.63-1.72-4.16-1.72h-18.85Z"/>
    <path class="cls-1" d="M188.96,55.97l-3.39-3.83.89-33.62,5.66-5.98c.97,1.29,1.48,2.93,1.43,4.6l-.93,34.97-3.66,3.86Z"/>
    <path class="cls-1" d="M162.08,101.75c1.15,1.11,2.63,1.72,4.16,1.72h18.85c1.46,0,2.87-.55,3.99-1.56l-5.42-6.13h-15.92l-5.66,5.98Z"/>
    <path class="cls-1" d="M161.38,100.96l5.66-5.98.89-33.62-3.39-3.83-3.66,3.86-.93,34.97c-.05,1.67.45,3.31,1.43,4.6"/>
    <path class="cls-1" d="M192.32,61.36l-3.39-3.83-3.66,3.86-.89,33.62,5.42,6.13c.96-1.19,1.52-2.71,1.57-4.3l.95-35.47Z"/>
    <path class="cls-1" d="M69.94,17.73l5.66-5.98c-1.15-1.11-2.63-1.72-4.16-1.72h-18.85c-1.46,0-2.87.55-3.99,1.56l5.42,6.13h15.92Z"/>
    <polygon class="cls-1" points="68.76 60.6 72.42 56.74 69.03 52.9 53.11 52.9 49.45 56.76 52.84 60.6 68.76 60.6"/>
    <path class="cls-1" d="M48.75,55.97l-3.39-3.83.95-35.47c.05-1.59.6-3.11,1.57-4.3l5.42,6.13-.89,33.62-3.66,3.86Z"/>
    <path class="cls-1" d="M73.15,55.97l-3.39-3.83.89-33.62,5.66-5.98c.97,1.29,1.48,2.93,1.43,4.6l-.93,34.97-3.66,3.86Z"/>
    <path class="cls-1" d="M76.51,61.36l-3.39-3.83-3.66,3.86-.89,33.62,5.42,6.13c.96-1.19,1.52-2.71,1.57-4.3l.95-35.47Z"/>
    <path class="cls-1" d="M46.27,101.75l5.66-5.98h15.92l5.42,6.13c-1.12,1.01-2.54,1.56-3.99,1.56h-18.85c-1.53,0-3.01-.61-4.16-1.72"/>
    <path class="cls-1" d="M111.75,55.97l-3.39-3.83.89-33.62,5.66-5.98c.97,1.29,1.48,2.93,1.43,4.6l-.93,34.97-3.66,3.86Z"/>
    <path class="cls-1" d="M115.11,61.36l-3.39-3.83-3.66,3.86-.89,33.62,5.42,6.13c.96-1.19,1.52-2.71,1.57-4.3l.95-35.47Z"/>
    <path class="cls-1" d="M84.17,100.96l5.66-5.98.89-33.62-3.39-3.83-3.66,3.86-.93,34.97c-.05,1.67.45,3.31,1.43,4.6"/>
    <path class="cls-1" d="M87.36,55.97l-3.39-3.83.95-35.47c.05-1.59.6-3.11,1.57-4.3l5.42,6.13-.89,33.62-3.66,3.86Z"/>
    <path class="cls-1" d="M84.87,101.75c1.15,1.11,2.63,1.72,4.16,1.72h18.85c1.46,0,2.87-.55,3.99-1.56l-5.42-6.13h-15.92l-5.66,5.98Z"/>
    <path class="cls-1" d="M91.2,10.04c-1.46,0-2.87.55-3.99,1.56l5.42,6.13h15.92l5.66-5.98c-1.15-1.11-2.63-1.72-4.16-1.72h-18.85Z"/>
    <polygon class="cls-1" points="107.37 60.6 111.03 56.74 107.64 52.9 91.72 52.9 88.06 56.76 91.45 60.6 107.37 60.6"/>
    <path class="cls-4" d="M21.26,43.82h0c-7.04,0-12.75,5.71-12.75,12.75s5.71,12.75,12.75,12.75,12.75-5.71,12.75-12.75-5.71-12.75-12.75-12.75"/>
    <path class="cls-2" d="M28.74,53.15l-7.96,9.01c-.62.7-1.7.73-2.36.07l-4.58-4.59c-.64-.64-.64-1.67,0-2.3.64-.64,1.67-.64,2.3,0l3.35,3.36,6.81-7.71c.6-.67,1.63-.74,2.3-.14.67.6.74,1.62.14,2.3"/>
    <path class="cls-3" d="M21.26,11.81c-7.04,0-12.75,5.71-12.75,12.75s5.71,12.75,12.75,12.75,12.75-5.71,12.75-12.75-5.71-12.75-12.75-12.75"/>
    <path class="cls-2" d="M14.81,27.22c-1.47,0-2.66-1.19-2.66-2.66s1.19-2.66,2.66-2.66,2.66,1.19,2.66,2.66-1.19,2.66-2.66,2.66"/>
    <path class="cls-2" d="M21.26,27.22c-1.47,0-2.66-1.19-2.66-2.66s1.19-2.66,2.66-2.66,2.66,1.19,2.66,2.66-1.19,2.66-2.66,2.66"/>
    <path class="cls-2" d="M27.7,27.22c-1.47,0-2.66-1.19-2.66-2.66s1.19-2.66,2.66-2.66,2.66,1.19,2.66,2.66-1.19,2.66-2.66,2.66"/>
  </g>
</svg>